<svg id="svg" version="1.1" width="1000" height="259" xmlns="http://www.w3.org/2000/svg" xmlns:xlink="http://www.w3.org/1999/xlink" style="display: block;"><g id="svgg"><path id="path0" d="M308.581 2.100 C 307.219 6.581,305.291 7.170,291.840 7.213 C 276.994 7.259,272.564 8.047,267.483 11.543 C 256.825 18.876,251.974 37.162,253.750 63.315 C 255.500 89.095,261.722 97.660,281.000 100.830 C 283.733 101.279,319.591 101.428,319.607 100.990 C 319.622 100.586,318.162 93.704,317.614 91.600 C 317.414 90.830,316.956 88.850,316.597 87.200 C 316.237 85.550,315.854 83.885,315.745 83.500 C 315.559 82.847,314.340 82.800,297.399 82.800 C 277.288 82.800,275.438 82.627,271.150 80.341 C 265.970 77.580,262.989 72.641,261.408 64.200 C 260.388 58.753,260.858 47.891,262.421 40.812 C 264.082 33.287,268.522 29.158,276.400 27.810 C 277.170 27.678,283.560 27.577,290.600 27.586 C 308.192 27.609,311.290 27.151,314.226 24.100 C 318.570 19.585,317.764 9.407,312.520 2.530 C 311.244 0.858,309.031 0.616,308.581 2.100 M76.914 3.377 C 72.725 9.846,72.110 19.537,75.608 23.962 C 77.101 25.851,81.910 28.800,83.497 28.800 C 83.894 28.800,83.997 29.027,83.814 29.500 C 83.411 30.540,82.461 34.225,81.777 37.400 C 80.458 43.528,80.338 57.752,81.557 63.600 C 82.667 68.924,83.362 72.027,83.887 74.000 C 86.392 83.421,88.915 94.216,89.894 99.700 L 90.091 100.800 114.638 100.800 L 139.185 100.800 139.415 99.700 C 139.542 99.095,139.808 97.880,140.007 97.000 C 140.206 96.120,140.483 94.770,140.623 94.000 C 142.956 81.107,151.660 59.937,160.687 45.200 C 165.347 37.593,166.888 34.750,168.820 30.200 C 170.740 25.677,171.110 19.120,169.632 15.780 C 168.002 12.095,165.949 10.699,157.935 7.829 C 155.620 6.999,154.139 5.557,153.536 3.545 C 153.104 2.104,150.400 1.051,150.400 2.325 C 150.400 2.503,150.085 3.009,149.700 3.449 C 147.286 6.208,145.600 11.621,145.600 16.611 C 145.600 22.370,147.518 24.865,154.072 27.631 C 162.513 31.192,161.880 36.348,151.301 50.200 C 150.687 51.004,145.670 58.687,143.726 61.800 C 139.799 68.089,136.608 74.236,134.596 79.388 L 133.342 82.600 119.871 82.705 C 112.462 82.763,106.400 82.727,106.400 82.625 C 106.400 82.523,107.184 80.765,108.141 78.720 C 111.362 71.839,112.652 68.786,115.208 62.000 C 117.301 56.441,120.034 47.892,121.664 41.800 C 121.900 40.920,122.237 39.750,122.414 39.200 C 122.590 38.650,123.120 36.400,123.591 34.200 C 124.728 28.896,124.639 29.018,127.441 28.905 C 134.656 28.613,135.200 28.122,135.200 21.902 C 135.200 13.423,132.976 10.827,123.809 8.612 C 119.083 7.470,118.048 6.777,117.000 4.055 C 115.005 -1.128,110.778 3.735,109.203 13.025 C 108.176 19.084,110.915 24.314,116.637 27.219 C 118.068 27.945,119.323 28.676,119.426 28.842 C 119.858 29.541,112.461 52.938,109.986 58.700 C 109.461 59.923,109.168 60.627,106.782 66.400 C 100.531 81.525,97.721 85.418,95.881 81.500 C 86.669 61.889,85.022 52.068,87.872 33.746 L 88.502 29.692 90.951 29.423 C 98.758 28.567,99.280 28.162,99.280 22.959 C 99.280 14.190,96.721 10.730,88.800 8.788 C 83.360 7.453,81.862 6.417,80.746 3.218 C 80.114 1.404,78.139 1.486,76.914 3.377 M182.292 2.900 C 181.962 3.395,181.293 4.250,180.806 4.800 C 177.811 8.180,176.283 14.399,177.123 19.798 C 178.085 25.989,179.973 28.817,192.100 42.230 C 194.009 44.342,194.004 44.370,191.500 45.877 C 183.420 50.742,177.826 58.328,177.251 65.200 C 176.791 70.694,177.589 74.556,181.014 83.400 C 184.531 92.483,184.229 95.791,179.700 97.827 C 178.647 98.300,178.400 98.642,178.400 99.625 L 178.400 100.839 188.359 100.720 C 197.370 100.611,198.395 100.530,199.130 99.864 C 203.090 96.277,201.887 87.424,196.214 78.400 C 190.529 69.357,189.453 67.173,188.412 62.569 C 187.349 57.863,190.259 52.797,196.046 49.280 L 197.492 48.402 199.246 50.317 C 200.211 51.370,202.080 53.477,203.400 54.999 C 204.720 56.520,206.681 58.763,207.757 59.983 C 208.833 61.202,210.183 62.745,210.757 63.410 C 212.348 65.256,214.351 67.554,217.039 70.619 C 218.380 72.149,220.966 75.110,222.785 77.200 C 224.603 79.290,226.566 81.541,227.146 82.202 C 227.726 82.862,229.280 84.659,230.600 86.194 C 231.920 87.730,233.612 89.662,234.360 90.488 C 237.280 93.715,238.930 97.118,239.465 101.019 C 239.931 104.425,242.667 103.376,245.793 98.594 C 250.875 90.819,248.988 81.320,240.434 71.611 C 233.251 63.460,232.184 62.135,231.079 60.005 C 227.531 53.167,228.864 45.698,235.969 32.600 C 237.768 29.284,237.662 29.342,242.738 28.910 C 247.840 28.477,247.832 28.482,248.235 25.261 C 248.946 19.566,247.601 15.570,244.123 13.046 C 242.248 11.685,240.732 11.157,233.800 9.453 C 227.601 7.928,225.916 6.782,224.771 3.311 C 224.053 1.136,222.123 1.419,220.746 3.900 C 217.093 10.487,217.467 19.505,221.563 23.602 C 223.610 25.649,228.051 27.989,229.919 28.006 C 231.640 28.022,231.731 28.632,230.344 30.853 C 228.705 33.477,227.107 36.667,225.964 39.600 C 224.327 43.800,222.800 48.555,222.800 49.451 C 222.800 51.158,222.120 50.759,219.102 47.284 C 217.438 45.368,215.744 43.437,215.338 42.993 C 214.932 42.549,212.624 39.939,210.208 37.193 C 207.792 34.447,205.719 32.110,205.600 32.000 C 205.366 31.783,197.360 22.699,195.400 20.427 C 194.227 19.066,191.853 16.397,190.040 14.400 C 187.829 11.964,185.627 6.352,185.607 3.100 C 185.598 1.618,183.241 1.476,182.292 2.900 M330.023 3.460 C 326.993 6.945,325.331 12.543,325.705 18.005 C 326.185 25.001,329.505 27.551,338.701 27.987 L 343.202 28.200 342.301 29.245 C 339.099 32.958,337.249 35.116,336.200 36.362 C 335.540 37.147,334.469 38.384,333.820 39.112 C 327.082 46.666,327.200 46.009,327.200 76.020 L 327.200 100.400 362.600 100.400 L 398.000 100.400 398.000 67.368 C 398.000 7.747,398.502 8.432,354.794 8.409 L 338.988 8.400 337.194 7.446 C 335.834 6.723,335.158 6.002,334.400 4.469 C 333.183 2.008,331.602 1.644,330.023 3.460 M4.945 4.710 C -1.739 14.775,1.016 28.000,9.796 28.000 C 11.517 28.000,11.567 27.641,9.286 31.643 C 7.535 34.716,5.648 39.106,5.007 41.600 C 4.865 42.150,4.603 42.960,4.424 43.400 C 1.655 50.197,1.225 70.251,3.682 78.000 C 5.527 83.820,7.148 87.282,9.549 90.528 C 11.145 92.687,15.543 97.200,16.050 97.200 C 16.211 97.200,16.581 97.425,16.871 97.700 C 17.710 98.493,20.408 99.869,22.800 100.723 C 27.551 102.421,28.851 102.600,36.400 102.600 C 43.921 102.600,45.254 102.418,49.918 100.753 C 61.494 96.623,67.032 86.882,69.224 66.800 C 69.750 61.976,69.498 43.188,68.856 39.400 C 68.633 38.080,68.248 35.834,68.002 34.410 C 66.179 23.876,60.660 15.258,53.577 11.888 C 47.952 9.211,47.088 9.100,29.800 8.829 C 16.199 8.616,14.039 8.498,12.948 7.907 C 11.421 7.080,9.686 5.081,9.357 3.769 C 8.889 1.908,6.462 2.426,4.945 4.710 M377.330 28.574 C 387.892 30.595,389.504 35.235,389.882 64.700 L 390.108 82.400 362.836 82.400 L 335.565 82.400 335.682 66.900 C 335.819 48.913,336.456 46.163,342.047 39.440 C 342.248 39.198,343.852 36.930,345.612 34.400 C 347.371 31.870,349.104 29.395,349.462 28.900 C 350.287 27.757,371.750 27.506,377.330 28.574 M46.908 28.807 C 57.440 30.330,61.895 37.204,62.609 53.035 C 63.768 78.710,53.809 87.542,27.729 83.972 C 9.963 81.539,3.607 54.858,15.251 31.594 L 16.850 28.400 30.525 28.408 C 38.046 28.412,45.418 28.592,46.908 28.807 M283.571 46.391 C 274.660 51.101,277.819 64.200,287.866 64.200 C 297.959 64.200,301.021 51.002,291.995 46.398 C 289.899 45.328,285.587 45.325,283.571 46.391 " stroke="none" fill="#79db44" fill-rule="evenodd"></path><path id="path1" d="M297.500 101.499 C 301.515 101.565,308.085 101.565,312.100 101.499 C 316.115 101.434,312.830 101.381,304.800 101.381 C 296.770 101.381,293.485 101.434,297.500 101.499 " stroke="none" fill="#74ff17" fill-rule="evenodd"></path></g></svg>